<svg width="24" height="16" viewBox="0 0 24 16" fill="none" xmlns="http://www.w3.org/2000/svg">
<rect width="24" height="16" fill="#1E1E1E"/>
<g clip-path="url(#clip0_0_1)">
<path d="M23.498 2.53096C23.3624 2.04151 23.095 1.5948 22.7226 1.23554C22.3502 0.876291 21.8858 0.617111 21.376 0.483958C19.505 1.14242e-07 12 0 12 0C12 0 4.495 1.14242e-07 2.623 0.483958C2.11341 0.617345 1.64929 0.876619 1.27708 1.23585C0.904861 1.59508 0.637591 2.04167 0.502 2.53096C0 4.33646 0 8.10271 0 8.10271C0 8.10271 0 11.869 0.502 13.6745C0.637586 14.1639 0.904975 14.6106 1.27739 14.9699C1.64981 15.3291 2.11418 15.5883 2.624 15.7215C4.495 16.2054 12 16.2054 12 16.2054C12 16.2054 19.505 16.2054 21.377 15.7215C21.8869 15.5884 22.3513 15.3292 22.7237 14.97C23.0961 14.6107 23.3635 14.1639 23.499 13.6745C24 11.869 24 8.10271 24 8.10271C24 8.10271 24 4.33646 23.498 2.53096ZM9.545 11.522V4.68337L15.818 8.10271L9.545 11.522Z" fill="#FF0000"/>
</g>
<defs>
<clipPath id="clip0_0_1">
<rect width="24" height="16" fill="white"/>
</clipPath>
</defs>
</svg>
